<svg xmlns="http://www.w3.org/2000/svg" viewBox="0 0 512 512">
  <defs>
    <radialGradient id="bg" cx="50%" cy="44%" r="70%">
      <stop offset="0" stop-color="#263043"/>
      <stop offset="0.58" stop-color="#111725"/>
      <stop offset="1" stop-color="#05070d"/>
    </radialGradient>
    <linearGradient id="edge" x1="94" y1="420" x2="420" y2="92" gradientUnits="userSpaceOnUse">
      <stop stop-color="#f8c76a"/>
      <stop offset="0.47" stop-color="#8df7df"/>
      <stop offset="1" stop-color="#8f7cff"/>
    </linearGradient>
    <linearGradient id="letter" x1="150" y1="398" x2="365" y2="130" gradientUnits="userSpaceOnUse">
      <stop stop-color="#ffe19a"/>
      <stop offset="0.48" stop-color="#91ffe6"/>
      <stop offset="1" stop-color="#c5afff"/>
    </linearGradient>
    <filter id="glow" x="-30%" y="-30%" width="160%" height="160%">
      <feGaussianBlur stdDeviation="10" result="blur"/>
      <feColorMatrix in="blur" type="matrix" values="0 0 0 0 0.45 0 0 0 0 0.95 0 0 0 0 0.85 0 0 0 0.55 0"/>
      <feMerge>
        <feMergeNode/>
        <feMergeNode in="SourceGraphic"/>
      </feMerge>
    </filter>
  </defs>
  <rect width="512" height="512" rx="112" fill="url(#bg)"/>
  <circle cx="256" cy="256" r="188" fill="none" stroke="#8df7df" stroke-opacity="0.10" stroke-width="16"/>
  <path d="M256 68 415 160v192L256 444 97 352V160L256 68Z" fill="none" stroke="url(#edge)" stroke-width="22" stroke-linejoin="round" filter="url(#glow)"/>
  <path d="M256 126 360 186v140L256 386 152 326V186L256 126Z" fill="none" stroke="url(#edge)" stroke-width="11" stroke-linejoin="round" opacity="0.78"/>
  <path d="M152 374 252 130 360 374" fill="none" stroke="#061018" stroke-width="54" stroke-linecap="round" stroke-linejoin="round" opacity="0.55"/>
  <path d="M156 372 254 132 358 372" fill="none" stroke="url(#letter)" stroke-width="34" stroke-linecap="round" stroke-linejoin="round"/>
  <path d="M203 291h106" stroke="#061018" stroke-width="42" stroke-linecap="round" opacity="0.55"/>
  <path d="M205 291h102" stroke="url(#edge)" stroke-width="22" stroke-linecap="round"/>
  <path d="M256 138v232" stroke="#9fffe6" stroke-width="10" stroke-linecap="round" opacity="0.42"/>
  <path d="M119 164 256 84 393 164" fill="none" stroke="#ffffff" stroke-opacity="0.11" stroke-width="8" stroke-linecap="round"/>
</svg>
